<?xml version="1.0" encoding="UTF-8" standalone="no"?>
<!-- Created with Inkscape (http://www.inkscape.org/) -->

<svg
   xmlns:dc="http://purl.org/dc/elements/1.1/"
   xmlns:cc="http://creativecommons.org/ns#"
   xmlns:rdf="http://www.w3.org/1999/02/22-rdf-syntax-ns#"
   xmlns:svg="http://www.w3.org/2000/svg"
   xmlns="http://www.w3.org/2000/svg"
   xmlns:sodipodi="http://sodipodi.sourceforge.net/DTD/sodipodi-0.dtd"
   xmlns:inkscape="http://www.inkscape.org/namespaces/inkscape"
   width="210mm"
   height="297mm"
   viewBox="0 0 744.09448819 1052.3622047"
   id="svg4699"
   version="1.1"
   inkscape:version="0.91 r13725"
   sodipodi:docname="ui.svg">
  <defs
     id="defs4701" />
  <sodipodi:namedview
     id="base"
     pagecolor="#ffffff"
     bordercolor="#666666"
     borderopacity="1.0"
     inkscape:pageopacity="0.0"
     inkscape:pageshadow="2"
     inkscape:zoom="2.8"
     inkscape:cx="290.8424"
     inkscape:cy="904.43975"
     inkscape:document-units="px"
     inkscape:current-layer="layer1"
     showgrid="false"
     inkscape:window-width="1680"
     inkscape:window-height="987"
     inkscape:window-x="-8"
     inkscape:window-y="-8"
     inkscape:window-maximized="1" />
  <metadata
     id="metadata4704">
    <rdf:RDF>
      <cc:Work
         rdf:about="">
        <dc:format>image/svg+xml</dc:format>
        <dc:type
           rdf:resource="http://purl.org/dc/dcmitype/StillImage" />
        <dc:title></dc:title>
      </cc:Work>
    </rdf:RDF>
  </metadata>
  <g
     inkscape:label="Layer 1"
     inkscape:groupmode="layer"
     id="layer1">
    <rect
       style="opacity:0.97000002;fill:#ffffff;fill-opacity:0;stroke:#892ca0;stroke-width:2;stroke-miterlimit:1;stroke-dasharray:none;stroke-dashoffset:0;stroke-opacity:0.94861662"
       id="rect5247"
       width="82.832512"
       height="82.832512"
       x="60.609154"
       y="31.09798"
       ry="3.2142856"
       rx="3.0357144"
       inkscape:export-xdpi="207.3"
       inkscape:export-ydpi="207.3" />
    <path
       style="fill:#cc00ff;fill-rule:evenodd;stroke:#2a2aff;stroke-width:1px;stroke-linecap:butt;stroke-linejoin:miter;stroke-opacity:1"
       d="m 202.47467,72.009159 c 1.05457,-3.096548 3.1652,-2.760912 5.55584,-1.515229 1.21402,-1.870971 4.31981,-1.995692 1.51523,-7.576144 l -10.22779,-1.767767 c -4.94834,1.546231 -9.36952,2.36466 -8.96511,14.89975 11.19711,8.7488 22.18648,18.467062 34.34518,22.728433 18.24702,-6.041751 27.45476,-23.501549 39.90103,-36.870569 -6.78377,-7.358371 -14.59864,-13.685631 -23.73859,-18.687822 -7.00768,12.235047 -17.01238,21.630812 -18.18274,39.395949 -5.56966,-4.197929 -11.819,-8.009306 -20.20305,-10.606601 z"
       id="path5249"
       inkscape:connector-curvature="0"
       sodipodi:nodetypes="cccccccccc" />
    <path
       style="fill:#cc00ff;fill-rule:evenodd;stroke:#2a2aff;stroke-width:1px;stroke-linecap:butt;stroke-linejoin:miter;stroke-opacity:1"
       d="m 287.89348,36.148744 c -3.37775,9.617432 -8.53352,17.101242 -5.55584,34.345187 -0.60508,9.81743 -0.0404,19.300641 4.04061,27.779193 -3.53554,-2.525379 -7.40779,-3.198814 -11.61676,-2.0203 -2.28543,2.183628 -5.219,4.107996 -4.29314,7.576146 l 25.00127,-1e-5 c 0.31679,-11.964328 0.46036,-23.876689 -2.52538,-34.850258 5.42898,-9.723047 8.16067,-20.944588 10.6066,-32.324882 -4.59479,-0.792684 -9.0998,-1.675157 -15.65736,-0.505076 z"
       id="path5251"
       inkscape:connector-curvature="0"
       sodipodi:nodetypes="ccccccccc" />
    <path
       style="fill:#cc00ff;fill-rule:evenodd;stroke:#2a2aff;stroke-width:1px;stroke-linecap:butt;stroke-linejoin:miter;stroke-opacity:1"
       d="m 350.90757,37.592183 14.14213,5.050763 c -1.53723,7.072299 -0.89154,13.598868 1.37887,19.719257 l -5.71429,33.21429 c -5.30408,0.64761 -9.73997,-1.74344 -16.78572,4.999987 l -12.85713,1e-5 c -4.14632,-7.523377 -9.63189,-5.671987 -14.64286,-7.142857 l -1.07143,-35.000001 c 8.09427,-5.833334 5.63781,-11.666667 6.78572,-17.5 l 12.5,-5 c 5.88366,4.249634 11.33325,5.026606 16.26471,1.658551 z"
       id="path5253"
       inkscape:connector-curvature="0"
       sodipodi:nodetypes="ccccccccccc" />
  </g>
</svg>
